<svg width="331" height="47" viewBox="0 0 331 47" fill="none" xmlns="http://www.w3.org/2000/svg">
<path d="M0 45.5C0 46.0523 0.447715 46.5 1 46.5C1.55228 46.5 2 46.0523 2 45.5H1H0ZM320.56 35.5C320.008 35.5 319.617 36.1764 319.893 36.6547L324.333 44.3453C324.609 44.8236 325.391 44.8236 325.667 44.3453L330.107 36.6547C330.383 36.1764 329.992 35.5 329.44 35.5H320.56ZM1 45.5H2V25H1H0V45.5H1ZM25 1V2H301V1V0H25V1ZM325 25H324V36.5H325H326V25H325ZM301 1V2C313.703 2 324 12.2975 324 25H325H326C326 11.1929 314.807 0 301 0V1ZM1 25H2C2 12.2975 12.2975 2 25 2V1V0C11.1929 0 0 11.1929 0 25H1Z" fill="#7157D9"/>
</svg>
