<svg width="331" height="47" viewBox="0 0 331 47" fill="none" xmlns="http://www.w3.org/2000/svg">
<path d="M2 1C2 0.447715 1.55228 0 1 0C0.447715 0 0 0.447715 0 1H1H2ZM329.44 11C329.992 11 330.383 10.3236 330.107 9.8453L325.667 2.1547C325.391 1.67641 324.609 1.67641 324.333 2.1547L319.893 9.8453C319.617 10.3236 320.008 11 320.56 11H329.44ZM1 1H0V21.5H1H2V1H1ZM25 45.5V46.5H301V45.5V44.5H25V45.5ZM325 21.5H326V10H325H324V21.5H325ZM301 45.5V46.5C314.807 46.5 326 35.3071 326 21.5H325H324C324 34.2025 313.703 44.5 301 44.5V45.5ZM1 21.5H0C0 35.3071 11.1929 46.5 25 46.5V45.5V44.5C12.2975 44.5 2 34.2025 2 21.5H1Z" fill="#7157D9"/>
</svg>
