<svg preserveAspectRatio="none" width="100%" height="100%" overflow="visible" style="display: block;" viewBox="0 0 107.828 24" fill="none" xmlns="http://www.w3.org/2000/svg">
<g id="waand">
<path id="Vector" d="M98.1804 24C96.7136 24 95.3821 23.6276 94.1861 22.8829C92.99 22.1382 92.0422 21.1114 91.3426 19.8025C90.6656 18.4711 90.3271 16.9478 90.3271 15.2327C90.3271 13.5176 90.6656 12.0056 91.3426 10.6968C92.0196 9.3653 92.9449 8.32722 94.1184 7.58251C95.2919 6.81523 96.6459 6.43159 98.1804 6.43159C99.5119 6.43159 100.618 6.65726 101.498 7.1086C102.378 7.55994 103.066 8.19182 103.563 9.00423C104.059 9.81664 104.409 10.7532 104.612 11.8138C104.838 12.8745 104.951 14.0141 104.951 15.2327C104.951 16.1354 104.838 17.0945 104.612 18.11C104.386 19.1255 104.025 20.0846 103.529 20.9873C103.032 21.89 102.344 22.6234 101.464 23.1876C100.584 23.7292 99.4893 24 98.1804 24ZM99.0944 21.1904C100.29 21.1904 101.295 20.9309 102.107 20.4118C102.942 19.8702 103.563 19.1481 103.969 18.2454C104.375 17.3427 104.578 16.3385 104.578 15.2327C104.578 14.0367 104.364 12.9873 103.935 12.0846C103.529 11.1819 102.908 10.4824 102.073 9.9859C101.261 9.48942 100.268 9.24118 99.0944 9.24118C97.3342 9.24118 95.9689 9.80536 94.9985 10.9337C94.0507 12.0621 93.5768 13.4951 93.5768 15.2327C93.5768 16.4062 93.8137 17.4443 94.2876 18.347C94.7615 19.2271 95.4047 19.9267 96.2171 20.4457C97.0521 20.9422 98.0112 21.1904 99.0944 21.1904ZM104.578 0H107.828V23.6615H104.849C104.781 23.165 104.714 22.5557 104.646 21.8336C104.601 21.1114 104.578 20.4908 104.578 19.9718V0Z" fill="var(--fill-0, #6047C6)"/>
<path id="Vector_2" d="M71.0094 6.7701H74.259V23.6615H71.0094V6.7701ZM80.6906 6.4316C81.6384 6.4316 82.496 6.567 83.2633 6.8378C84.0305 7.10861 84.685 7.51481 85.2266 8.05642C85.7682 8.57546 86.1857 9.2299 86.4791 10.0197C86.795 10.787 86.953 11.6671 86.953 12.6601V23.6615H83.7372V13.3709C83.7372 12.0395 83.4099 11.0465 82.7555 10.3921C82.1236 9.71509 81.1532 9.37659 79.8444 9.37659C78.8288 9.37659 77.9036 9.61354 77.0686 10.0874C76.2336 10.5614 75.5453 11.1932 75.0037 11.9831C74.4847 12.7504 74.1688 13.6192 74.0559 14.5896L74.0221 12.7278C74.1349 11.8251 74.3719 10.9901 74.7329 10.2229C75.1166 9.45557 75.5905 8.78985 76.1547 8.22567C76.7414 7.63893 77.4184 7.19887 78.1857 6.9055C78.953 6.58957 79.7879 6.4316 80.6906 6.4316Z" fill="var(--fill-0, #6047C6)"/>
<path id="Vector_3" d="M57.1235 24C55.6792 24 54.359 23.6276 53.163 22.8829C51.9669 22.1382 51.0191 21.1114 50.3195 19.8025C49.62 18.4711 49.2702 16.9478 49.2702 15.2327C49.2702 13.5176 49.62 12.0056 50.3195 10.6968C51.0417 9.36531 52.0234 8.32722 53.2645 7.58251C54.5057 6.81524 55.8936 6.4316 57.4281 6.4316C59.1207 6.4316 60.4296 6.82652 61.3548 7.61636C62.3026 8.40621 62.9571 9.46686 63.3181 10.7983C63.7018 12.1298 63.8936 13.6079 63.8936 15.2327C63.8936 16.1354 63.7808 17.0945 63.5551 18.11C63.3294 19.1255 62.9683 20.0846 62.4719 20.9873C61.9754 21.89 61.2871 22.6234 60.407 23.1876C59.5269 23.7292 58.4324 24 57.1235 24ZM58.0375 21.1904C59.2335 21.1904 60.2377 20.9309 61.0501 20.4118C61.8851 19.8702 62.5057 19.1481 62.9119 18.2454C63.3181 17.3427 63.5212 16.3385 63.5212 15.2327C63.5212 14.0367 63.3068 12.9873 62.8781 12.0846C62.4719 11.1819 61.8513 10.4824 61.0163 9.9859C60.2039 9.48942 59.2109 9.24119 58.0375 9.24119C56.2772 9.24119 54.9119 9.80536 53.9415 10.9337C52.9937 12.0621 52.5198 13.4951 52.5198 15.2327C52.5198 16.4062 52.7568 17.4443 53.2307 18.347C53.7046 19.2271 54.3478 19.9267 55.1602 20.4457C55.9951 20.9422 56.9542 21.1904 58.0375 21.1904ZM63.5212 6.7701H66.7709V23.6615H63.792C63.792 23.6615 63.7695 23.4584 63.7243 23.0522C63.6792 22.6234 63.6341 22.1157 63.5889 21.5289C63.5438 20.9422 63.5212 20.4231 63.5212 19.9718V6.7701Z" fill="var(--fill-0, #6047C6)"/>
<path id="Vector_4" d="M36.2645 24C34.8202 24 33.5 23.6276 32.3039 22.8829C31.1079 22.1382 30.1601 21.1114 29.4605 19.8025C28.7609 18.4711 28.4111 16.9478 28.4111 15.2327C28.4111 13.5176 28.7609 12.0056 29.4605 10.6968C30.1826 9.36531 31.1643 8.32722 32.4055 7.58251C33.6467 6.81524 35.0346 6.4316 36.5691 6.4316C38.2616 6.4316 39.5705 6.82652 40.4958 7.61636C41.4436 8.40621 42.098 9.46686 42.4591 10.7983C42.8427 12.1298 43.0345 13.6079 43.0345 15.2327C43.0345 16.1354 42.9217 17.0945 42.696 18.11C42.4704 19.1255 42.1093 20.0846 41.6128 20.9873C41.1164 21.89 40.4281 22.6234 39.5479 23.1876C38.6678 23.7292 37.5733 24 36.2645 24ZM37.1784 21.1904C38.3745 21.1904 39.3787 20.9309 40.1911 20.4118C41.0261 19.8702 41.6467 19.1481 42.0529 18.2454C42.4591 17.3427 42.6622 16.3385 42.6622 15.2327C42.6622 14.0367 42.4478 12.9873 42.019 12.0846C41.6128 11.1819 40.9922 10.4824 40.1573 9.9859C39.3448 9.48942 38.3519 9.24119 37.1784 9.24119C35.4182 9.24119 34.0529 9.80536 33.0825 10.9337C32.1347 12.0621 31.6608 13.4951 31.6608 15.2327C31.6608 16.4062 31.8977 17.4443 32.3716 18.347C32.8456 19.2271 33.4887 19.9267 34.3011 20.4457C35.1361 20.9422 36.0952 21.1904 37.1784 21.1904ZM42.6622 6.7701H45.9118V23.6615H42.933C42.933 23.6615 42.9104 23.4584 42.8653 23.0522C42.8202 22.6234 42.775 22.1157 42.7299 21.5289C42.6848 20.9422 42.6622 20.4231 42.6622 19.9718V6.7701Z" fill="var(--fill-0, #6047C6)"/>
<path id="Vector_5" d="M20.0395 21.0212L19.1594 20.9873L23.5938 6.7701H27.1142L21.2581 23.6615H18.2116L13.1001 9.20734H14.0141L8.83498 23.6615H5.78843L0 6.7701H3.5543L7.85331 20.9873L6.9732 21.0212L11.6446 6.7701H15.4697L20.0395 21.0212Z" fill="var(--fill-0, #6047C6)"/>
</g>
</svg>
